<svg xmlns="http://www.w3.org/2000/svg" width="1024" height="1024" viewBox="0 0 1024 1024" version="1.1"><path d="M 482.384 20.048 L 469.267 20.796 459.884 21.956 L 450.500 23.117 436 25.614 L 421.500 28.112 410 30.490 L 398.500 32.868 393 34.362 L 387.500 35.855 374.500 39.853 L 361.500 43.852 353 46.789 L 344.500 49.727 331.500 54.990 L 318.500 60.254 314.500 62.038 L 310.500 63.822 303 67.249 L 295.500 70.675 279 79.978 L 262.500 89.281 259 91.242 L 255.500 93.203 254 94.425 L 252.500 95.647 243 101.664 L 233.500 107.680 218.500 119.015 L 203.500 130.351 192 140.330 L 180.500 150.309 168.672 161.904 L 156.843 173.500 147.650 184 L 138.457 194.500 132.920 201.500 L 127.382 208.500 122.381 215 L 117.380 221.500 110.397 231.500 L 103.415 241.500 97.523 251 L 91.631 260.500 85.561 271.500 L 79.491 282.500 71.828 298.500 L 64.164 314.500 59.165 326.500 L 54.166 338.500 52.011 345.500 L 49.856 352.500 48.959 354.500 L 48.062 356.500 45.501 365.500 L 42.940 374.500 41.009 382 L 39.079 389.500 36.608 400 L 34.136 410.500 32.578 419 L 31.019 427.500 28.546 444 L 26.073 460.500 25.027 481.776 L 23.980 503.052 25.013 526.776 L 26.047 550.500 27.548 562.500 L 29.049 574.500 30.982 586.500 L 32.916 598.500 36.420 614 L 39.925 629.500 41.334 635 L 42.743 640.500 45.481 649.500 L 48.220 658.500 52.045 669.500 L 55.870 680.500 57.786 685.500 L 59.703 690.500 62.440 697 L 65.177 703.500 73.504 720.500 L 81.831 737.500 87.237 747 L 92.643 756.500 99.503 767.500 L 106.363 778.500 120.609 797.500 L 134.854 816.500 148.255 831.500 L 161.656 846.500 174.078 858.403 L 186.500 870.306 197.142 878.903 L 207.784 887.500 214.115 892.500 L 220.445 897.500 229.973 904.349 L 239.500 911.197 251.794 918.849 L 264.089 926.500 267.294 928.380 L 270.500 930.260 279.500 935.268 L 288.500 940.277 304.500 948.030 L 320.500 955.783 333.342 960.952 L 346.185 966.121 359.316 970.570 L 372.447 975.019 385.974 978.636 L 399.500 982.252 408 984.153 L 416.500 986.054 423.500 987.419 L 430.500 988.783 437.500 989.914 L 444.500 991.046 457 992.646 L 469.500 994.246 504.147 994.719 L 538.795 995.192 557.147 993.578 L 575.500 991.964 585.500 990.406 L 595.500 988.849 612 985.448 L 628.500 982.047 637.790 979.564 L 647.080 977.082 662.790 971.640 L 678.500 966.198 690 961.874 L 701.500 957.550 724 946.322 L 746.500 935.095 757 928.898 L 767.500 922.702 774.500 918.124 L 781.500 913.546 793 905.276 L 804.500 897.007 812.866 890.253 L 821.233 883.500 833.866 872.526 L 846.500 861.553 858.542 849.526 L 870.584 837.500 879.852 826.500 L 889.120 815.500 893.178 810.677 L 897.236 805.854 902.928 798.177 L 908.620 790.500 915.904 779.643 L 923.188 768.787 930.127 757.143 L 937.065 745.500 945.945 727.980 L 954.824 710.460 960.824 696.480 L 966.825 682.500 970.796 672 L 974.767 661.500 978.326 650 L 981.884 638.500 983.978 630 L 986.071 621.500 987.519 615.993 L 988.967 610.486 992.014 595.993 L 995.060 581.500 996.574 569 L 998.088 556.500 999.514 539.500 L 1000.940 522.500 1000.970 503.450 L 1001 484.400 999.994 470.950 L 998.988 457.500 997.918 449 L 996.849 440.500 994.889 428 L 992.930 415.500 990.922 406 L 988.915 396.500 985.400 383.500 L 981.885 370.500 977.864 358 L 973.843 345.500 971.349 339 L 968.855 332.500 964.306 321.500 L 959.756 310.500 950.414 291.690 L 941.072 272.881 937.400 266.690 L 933.727 260.500 929.863 254.250 L 926 248 921.778 241.250 L 917.556 234.500 908.584 222.500 L 899.611 210.500 893.144 202.500 L 886.676 194.500 879.472 186 L 872.267 177.500 857.719 163.337 L 843.170 149.173 828.835 137.290 L 814.500 125.406 807 119.854 L 799.500 114.301 789 106.986 L 778.500 99.670 767.023 92.725 L 755.546 85.781 737.658 76.291 L 719.769 66.802 716.135 65.306 L 712.500 63.809 709.500 62.457 L 706.500 61.105 697.990 57.629 L 689.481 54.152 674.245 48.621 L 659.010 43.091 648.755 39.951 L 638.500 36.812 631.500 34.904 L 624.500 32.996 617.500 31.465 L 610.500 29.934 598.314 27.517 L 586.127 25.100 570.814 23.070 L 555.500 21.039 542.605 20.020 L 529.710 19 512.605 19.150 L 495.500 19.301 482.384 20.048 M 494.500 74.098 L 468.500 74.696 460 75.870 L 451.500 77.044 441.500 78.596 L 431.500 80.149 422 82.109 L 412.500 84.070 401.071 87.096 L 389.642 90.122 380.071 93.178 L 370.500 96.234 358 101.202 L 345.500 106.171 332.667 112.164 L 319.835 118.156 307.771 124.664 L 295.707 131.172 280.603 140.669 L 265.500 150.166 256.500 156.922 L 247.500 163.678 234 174.896 L 220.500 186.115 205.653 200.808 L 190.805 215.500 184.672 223 L 178.539 230.500 169.681 241.500 L 160.822 252.500 148.486 271 L 136.149 289.500 129.841 301.500 L 123.532 313.500 116.670 328 L 109.808 342.500 106.021 352 L 102.233 361.500 97.687 376 L 93.140 390.500 91.594 396.500 L 90.049 402.500 88.553 409 L 87.058 415.500 84.557 429 L 82.057 442.500 80.298 456 L 78.538 469.500 78.581 505 L 78.623 540.500 80.848 557.500 L 83.074 574.500 85.033 585 L 86.993 595.500 88.580 602.500 L 90.167 609.500 92.190 618 L 94.212 626.500 100.208 644.500 L 106.204 662.500 110.796 673.500 L 115.389 684.500 125.445 704.501 L 135.500 724.503 143.965 737.501 L 152.429 750.500 155.465 754.704 L 158.500 758.909 163.499 765.704 L 168.499 772.500 180.981 787.500 L 193.464 802.500 202.023 811 L 210.583 819.500 218.042 826.500 L 225.500 833.500 234 840.525 L 242.500 847.550 249 852.581 L 255.500 857.612 261.984 862.056 L 268.469 866.500 280.984 874.234 L 293.500 881.968 304 888.004 L 314.500 894.041 327.500 900.411 L 340.500 906.781 356 912.781 L 371.500 918.780 384.500 922.970 L 397.500 927.160 411 930.639 L 424.500 934.117 434.500 935.595 L 444.500 937.073 446 937.512 L 447.500 937.952 461.500 939.533 L 475.500 941.115 494.484 941.903 L 513.468 942.692 530.484 941.916 L 547.500 941.139 561.500 939.574 L 575.500 938.010 586.500 936.016 L 597.500 934.022 606.500 932.032 L 615.500 930.042 622.500 928.106 L 629.500 926.170 636.855 924.053 L 644.210 921.935 653.355 918.454 L 662.500 914.973 668 912.892 L 673.500 910.811 681.500 907.472 L 689.500 904.133 699.244 899.602 L 708.987 895.071 727.244 884.411 L 745.500 873.751 755 867.203 L 764.500 860.655 775.500 852.388 L 786.500 844.121 795.985 835.959 L 805.469 827.797 814.512 819.149 L 823.555 810.500 833.031 800 L 842.507 789.500 849.510 781 L 856.512 772.500 860.179 767.926 L 863.846 763.351 870.991 753.012 L 878.137 742.673 885.018 731.971 L 891.900 721.269 902.408 700.385 L 912.916 679.500 916.560 670.500 L 920.205 661.500 924.163 650 L 928.122 638.500 930.464 630.500 L 932.806 622.500 934.895 614.500 L 936.983 606.500 939.091 597 L 941.199 587.500 942.567 578.500 L 943.935 569.500 945.014 559 L 946.093 548.500 947.217 540.500 L 948.340 532.500 948.394 506 L 948.448 479.500 946.758 463.500 L 945.068 447.500 943.020 435.500 L 940.972 423.500 938.058 411.500 L 935.143 399.500 930.021 382.542 L 924.898 365.584 918.334 349.044 L 911.769 332.504 906.757 322.502 L 901.745 312.500 893.733 298.500 L 885.721 284.500 879.008 274.500 L 872.296 264.500 869.898 260.990 L 867.500 257.479 862.528 250.990 L 857.556 244.500 853.125 239 L 848.695 233.500 838.337 221.980 L 827.978 210.460 816.239 199.391 L 804.500 188.322 794 179.357 L 783.500 170.392 774.069 163.043 L 764.637 155.695 750.569 146.477 L 736.500 137.260 724.972 130.731 L 713.444 124.202 699.972 117.719 L 686.500 111.236 677.500 107.565 L 668.500 103.895 665.500 102.523 L 662.500 101.152 652 97.527 L 641.500 93.901 634.500 91.881 L 627.500 89.861 621 88.012 L 614.500 86.163 609 85.104 L 603.500 84.045 596.500 82.478 L 589.500 80.911 581 79.435 L 572.500 77.960 559.500 76.402 L 546.500 74.845 533.500 74.172 L 520.500 73.500 494.500 74.098" stroke="none" fill="#adb4bd" fill-rule="evenodd"/><path d="M 481.893 17.440 L 481.313 18.020 464.407 19.525 L 447.500 21.030 439 22.450 L 430.500 23.869 423 25.334 L 415.500 26.798 404.500 29.391 L 393.500 31.983 388 33.574 L 382.500 35.165 380.250 35.699 L 378 36.233 378 37.176 L 378 38.118 376.994 37.496 L 375.988 36.875 372.244 38.079 L 368.500 39.282 367 39.792 L 365.500 40.302 364.058 40.591 L 362.616 40.879 354.058 44.041 L 345.500 47.202 339 49.705 L 332.500 52.207 324 55.721 L 315.500 59.234 312 60.746 L 308.500 62.257 296 68.442 L 283.500 74.627 277.500 77.964 L 271.500 81.301 261.500 87.314 L 251.500 93.327 239.500 101.380 L 227.500 109.433 221 114.361 L 214.500 119.289 202.535 128.894 L 190.570 138.500 177.535 150.590 L 164.500 162.679 156.339 171.312 L 148.178 179.945 138.484 191.222 L 128.790 202.500 119.726 215 L 110.663 227.500 107.784 231.500 L 104.906 235.500 100.453 242.274 L 96 249.047 96 249.590 L 96 250.133 93.500 253.411 L 91 256.689 91 257.266 L 91 257.842 85.879 266.671 L 80.759 275.500 73.992 289 L 67.224 302.500 64.507 309 L 61.790 315.500 59.510 320.500 L 57.229 325.500 55.678 329.500 L 54.127 333.500 50.713 343 L 47.299 352.500 44.196 362.500 L 41.092 372.500 39.576 378 L 38.060 383.500 35.534 394 L 33.008 404.500 31.887 410 L 30.766 415.500 30.416 418 L 30.066 420.500 29.015 426.500 L 27.964 432.500 26.472 443.500 L 24.979 454.500 23.492 469 L 22.005 483.500 22.025 505 L 22.046 526.500 23.070 538 L 24.094 549.500 25.136 559.500 L 26.178 569.500 27.161 576.500 L 28.144 583.500 29.498 592.475 L 30.851 601.450 31.819 601.773 L 32.788 602.096 32.313 603.911 L 31.838 605.727 33.488 612.613 L 35.138 619.500 37.155 627.500 L 39.172 635.500 41.022 642.500 L 42.872 649.500 46.946 661.809 L 51.019 674.118 55.625 685.809 L 60.230 697.500 65.810 710 L 71.389 722.500 71.944 723 L 72.500 723.500 76.718 732 L 80.936 740.500 84.055 746 L 87.173 751.500 94.753 764 L 102.333 776.500 109.621 786.500 L 116.909 796.500 121.387 802.500 L 125.866 808.500 130.088 814 L 134.310 819.500 140.905 826.998 L 147.500 834.496 158 845.370 L 168.500 856.245 183.581 869.872 L 198.662 883.500 202.475 886.500 L 206.289 889.500 207.437 890 L 208.586 890.500 212.043 893.654 L 215.500 896.808 223.500 902.709 L 231.500 908.611 240.627 914.806 L 249.755 921 250.533 921 L 251.311 921 254.589 923.500 L 257.867 926 258.778 926 L 259.689 926 262.594 928.499 L 265.500 930.998 267.250 930.999 L 269 931 269 932.013 L 269 933.025 278.750 937.753 L 288.500 942.480 289 943.105 L 289.500 943.730 300.500 949.166 L 311.500 954.603 316 956.474 L 320.500 958.345 321.304 958.155 L 322.107 957.964 323.397 959.254 L 324.687 960.544 341.093 966.658 L 357.500 972.772 367 975.817 L 376.500 978.861 384.500 980.988 L 392.500 983.115 399 984.534 L 405.500 985.953 412 987.504 L 418.500 989.054 424.500 990.098 L 430.500 991.141 433 991.584 L 435.500 992.027 442 993.068 L 448.500 994.109 453 994.637 L 457.500 995.165 467 996.042 L 476.500 996.919 499.924 997.611 L 523.348 998.303 542.424 997.117 L 561.500 995.930 577 993.918 L 592.500 991.906 594.747 991.542 L 596.995 991.177 601.247 990.532 L 605.500 989.888 612 988.426 L 618.500 986.964 622 986.040 L 625.500 985.115 633 983.372 L 640.500 981.629 641.450 980.815 L 642.400 980 644.740 980 L 647.080 980 657.790 976.451 L 668.500 972.903 670.500 972.021 L 672.500 971.139 676.500 969.949 L 680.500 968.758 689 965.344 L 697.500 961.930 699.500 961.082 L 701.500 960.233 710 956.366 L 718.500 952.500 733 945.135 L 747.500 937.770 763.500 928.038 L 779.500 918.306 785.641 913.903 L 791.782 909.500 798.641 904.553 L 805.500 899.606 817.500 889.956 L 829.500 880.306 835 875.573 L 840.500 870.839 840.250 869.920 L 840 869 840.803 869.250 L 841.606 869.500 851.749 860.075 L 861.892 850.649 871.876 839.575 L 881.859 828.500 884.041 826 L 886.223 823.500 889.862 819 L 893.500 814.500 894 814 L 894.500 813.500 898.036 809 L 901.572 804.500 903.284 802 L 904.995 799.500 910.527 792 L 916.058 784.500 919.702 779 L 923.347 773.500 928.301 765.500 L 933.255 757.500 937.786 749.500 L 942.317 741.500 947.786 731 L 953.255 720.500 953.268 720 L 953.282 719.500 954.604 717.482 L 955.926 715.465 961.546 701.982 L 967.167 688.500 969.043 684.347 L 970.919 680.194 973.529 672.847 L 976.138 665.500 979.518 655.500 L 982.898 645.500 987.476 627.679 L 992.055 609.857 991.818 608.679 L 991.580 607.500 992.708 605.470 L 993.835 603.440 994.994 595.970 L 996.152 588.500 997.015 583 L 997.877 577.500 998.547 573 L 999.217 568.500 999.585 563 L 999.954 557.500 1001.015 553.102 L 1002.077 548.703 1002.058 544.602 L 1002.039 540.500 1003.085 520.500 L 1004.131 500.500 1003.068 481.500 L 1002.006 462.500 1001.548 457.500 L 1001.090 452.500 1000.130 445 L 999.169 437.500 998.548 433.500 L 997.927 429.500 997.287 427 L 996.648 424.500 996.467 422.500 L 996.286 420.500 994.649 412 L 993.012 403.500 992.035 398.500 L 991.058 393.500 990.108 390 L 989.159 386.500 987.486 380 L 985.812 373.500 984.906 371.764 L 984 370.027 984 368.641 L 984 367.255 981.590 359.878 L 979.181 352.500 975.229 342 L 971.277 331.500 965.565 318 L 959.852 304.500 952.800 290.500 L 945.748 276.500 939.743 266 L 933.739 255.500 929.142 248 L 924.545 240.500 923.772 240.167 L 923 239.833 923 238.963 L 923 238.093 916.375 228.796 L 909.750 219.500 908.625 218.500 L 907.500 217.500 904.025 212.500 L 900.550 207.500 892.782 197.812 L 885.015 188.124 883.014 186.722 L 881.013 185.321 881.498 184.836 L 881.982 184.351 869.181 171.425 L 856.380 158.500 850.940 153.427 L 845.500 148.355 837.482 141.427 L 829.463 134.500 824.458 130.381 L 819.453 126.263 806.598 116.631 L 793.742 107 792.371 107 L 791 107 791 106.169 L 791 105.338 781.750 99.333 L 772.500 93.327 765 88.765 L 757.500 84.203 744.438 77.300 L 731.376 70.397 722.938 66.280 L 714.500 62.164 708.574 59.515 L 702.648 56.866 693.574 53.368 L 684.500 49.870 682.500 49.039 L 680.500 48.207 671.500 45.027 L 662.500 41.846 660 40.999 L 657.500 40.152 647.500 37.120 L 637.500 34.089 628 31.626 L 618.500 29.163 613 28.084 L 607.500 27.005 600.500 25.478 L 593.500 23.951 583.500 22.481 L 573.500 21.012 560 19.442 L 546.500 17.872 514.487 17.366 L 482.473 16.860 481.893 17.440 M 482.384 20.048 L 469.267 20.796 459.884 21.956 L 450.500 23.117 436 25.614 L 421.500 28.112 410 30.490 L 398.500 32.868 393 34.362 L 387.500 35.855 374.500 39.853 L 361.500 43.852 353 46.789 L 344.500 49.727 331.500 54.990 L 318.500 60.254 314.500 62.038 L 310.500 63.822 303 67.249 L 295.500 70.675 279 79.978 L 262.500 89.281 259 91.242 L 255.500 93.203 254 94.425 L 252.500 95.647 243 101.664 L 233.500 107.680 218.500 119.015 L 203.500 130.351 192 140.330 L 180.500 150.309 168.672 161.904 L 156.843 173.500 147.650 184 L 138.457 194.500 132.920 201.500 L 127.382 208.500 122.381 215 L 117.380 221.500 110.397 231.500 L 103.415 241.500 97.523 251 L 91.631 260.500 85.561 271.500 L 79.491 282.500 71.828 298.500 L 64.164 314.500 59.165 326.500 L 54.166 338.500 52.011 345.500 L 49.856 352.500 48.959 354.500 L 48.062 356.500 45.501 365.500 L 42.940 374.500 41.009 382 L 39.079 389.500 36.608 400 L 34.136 410.500 32.578 419 L 31.019 427.500 28.546 444 L 26.073 460.500 25.027 481.776 L 23.980 503.052 25.013 526.776 L 26.047 550.500 27.548 562.500 L 29.049 574.500 30.982 586.500 L 32.916 598.500 36.420 614 L 39.925 629.500 41.334 635 L 42.743 640.500 45.481 649.500 L 48.220 658.500 52.045 669.500 L 55.870 680.500 57.786 685.500 L 59.703 690.500 62.440 697 L 65.177 703.500 73.504 720.500 L 81.831 737.500 87.237 747 L 92.643 756.500 99.503 767.500 L 106.363 778.500 120.609 797.500 L 134.854 816.500 148.255 831.500 L 161.656 846.500 174.078 858.403 L 186.500 870.306 197.142 878.903 L 207.784 887.500 214.115 892.500 L 220.445 897.500 229.973 904.349 L 239.500 911.197 251.794 918.849 L 264.089 926.500 267.294 928.380 L 270.500 930.260 279.500 935.268 L 288.500 940.277 304.500 948.030 L 320.500 955.783 333.342 960.952 L 346.185 966.121 359.316 970.570 L 372.447 975.019 385.974 978.636 L 399.500 982.252 408 984.153 L 416.500 986.054 423.500 987.419 L 430.500 988.783 437.500 989.914 L 444.500 991.046 457 992.646 L 469.500 994.246 504.147 994.719 L 538.795 995.192 557.147 993.578 L 575.500 991.964 585.500 990.406 L 595.500 988.849 612 985.448 L 628.500 982.047 637.790 979.564 L 647.080 977.082 662.790 971.640 L 678.500 966.198 690 961.874 L 701.500 957.550 724 946.322 L 746.500 935.095 757 928.898 L 767.500 922.702 774.500 918.124 L 781.500 913.546 793 905.276 L 804.500 897.007 812.866 890.253 L 821.233 883.500 833.866 872.526 L 846.500 861.553 858.542 849.526 L 870.584 837.500 879.852 826.500 L 889.120 815.500 893.178 810.677 L 897.236 805.854 902.928 798.177 L 908.620 790.500 915.904 779.643 L 923.188 768.787 930.127 757.143 L 937.065 745.500 945.945 727.980 L 954.824 710.460 960.824 696.480 L 966.825 682.500 970.796 672 L 974.767 661.500 978.326 650 L 981.884 638.500 983.978 630 L 986.071 621.500 987.519 615.993 L 988.967 610.486 992.014 595.993 L 995.060 581.500 996.574 569 L 998.088 556.500 999.514 539.500 L 1000.940 522.500 1000.970 503.450 L 1001 484.400 999.994 470.950 L 998.988 457.500 997.918 449 L 996.849 440.500 994.889 428 L 992.930 415.500 990.922 406 L 988.915 396.500 985.400 383.500 L 981.885 370.500 977.864 358 L 973.843 345.500 971.349 339 L 968.855 332.500 964.306 321.500 L 959.756 310.500 950.414 291.690 L 941.072 272.881 937.400 266.690 L 933.727 260.500 929.863 254.250 L 926 248 921.778 241.250 L 917.556 234.500 908.584 222.500 L 899.611 210.500 893.144 202.500 L 886.676 194.500 879.472 186 L 872.267 177.500 857.719 163.337 L 843.170 149.173 828.835 137.290 L 814.500 125.406 807 119.854 L 799.500 114.301 789 106.986 L 778.500 99.670 767.023 92.725 L 755.546 85.781 737.658 76.291 L 719.769 66.802 716.135 65.306 L 712.500 63.809 709.500 62.457 L 706.500 61.105 697.990 57.629 L 689.481 54.152 674.245 48.621 L 659.010 43.091 648.755 39.951 L 638.500 36.812 631.500 34.904 L 624.500 32.996 617.500 31.465 L 610.500 29.934 598.314 27.517 L 586.127 25.100 570.814 23.070 L 555.500 21.039 542.605 20.020 L 529.710 19 512.605 19.150 L 495.500 19.301 482.384 20.048 M 494.500 74.098 L 468.500 74.696 460 75.870 L 451.500 77.044 441.500 78.596 L 431.500 80.149 422 82.109 L 412.500 84.070 401.071 87.096 L 389.642 90.122 380.071 93.178 L 370.500 96.234 358 101.202 L 345.500 106.171 332.667 112.164 L 319.835 118.156 307.771 124.664 L 295.707 131.172 280.603 140.669 L 265.500 150.166 256.500 156.922 L 247.500 163.678 234 174.896 L 220.500 186.115 205.653 200.808 L 190.805 215.500 184.672 223 L 178.539 230.500 169.681 241.500 L 160.822 252.500 148.486 271 L 136.149 289.500 129.841 301.500 L 123.532 313.500 116.670 328 L 109.808 342.500 106.021 352 L 102.233 361.500 97.687 376 L 93.140 390.500 91.594 396.500 L 90.049 402.500 88.553 409 L 87.058 415.500 84.557 429 L 82.057 442.500 80.298 456 L 78.538 469.500 78.581 505 L 78.623 540.500 80.848 557.500 L 83.074 574.500 85.033 585 L 86.993 595.500 88.580 602.500 L 90.167 609.500 92.190 618 L 94.212 626.500 100.208 644.500 L 106.204 662.500 110.796 673.500 L 115.389 684.500 125.445 704.501 L 135.500 724.503 143.965 737.501 L 152.429 750.500 155.465 754.704 L 158.500 758.909 163.499 765.704 L 168.499 772.500 180.981 787.500 L 193.464 802.500 202.023 811 L 210.583 819.500 218.042 826.500 L 225.500 833.500 234 840.525 L 242.500 847.550 249 852.581 L 255.500 857.612 261.984 862.056 L 268.469 866.500 280.984 874.234 L 293.500 881.968 304 888.004 L 314.500 894.041 327.500 900.411 L 340.500 906.781 356 912.781 L 371.500 918.780 384.500 922.970 L 397.500 927.160 411 930.639 L 424.500 934.117 434.500 935.595 L 444.500 937.073 446 937.512 L 447.500 937.952 461.500 939.533 L 475.500 941.115 494.484 941.903 L 513.468 942.692 530.484 941.916 L 547.500 941.139 561.500 939.574 L 575.500 938.010 586.500 936.016 L 597.500 934.022 606.500 932.032 L 615.500 930.042 622.500 928.106 L 629.500 926.170 636.855 924.053 L 644.210 921.935 653.355 918.454 L 662.500 914.973 668 912.892 L 673.500 910.811 681.500 907.472 L 689.500 904.133 699.244 899.602 L 708.987 895.071 727.244 884.411 L 745.500 873.751 755 867.203 L 764.500 860.655 775.500 852.388 L 786.500 844.121 795.985 835.959 L 805.469 827.797 814.512 819.149 L 823.555 810.500 833.031 800 L 842.507 789.500 849.510 781 L 856.512 772.500 860.179 767.926 L 863.846 763.351 870.991 753.012 L 878.137 742.673 885.018 731.971 L 891.900 721.269 902.408 700.385 L 912.916 679.500 916.560 670.500 L 920.205 661.500 924.163 650 L 928.122 638.500 930.464 630.500 L 932.806 622.500 934.895 614.500 L 936.983 606.500 939.091 597 L 941.199 587.500 942.567 578.500 L 943.935 569.500 945.014 559 L 946.093 548.500 947.217 540.500 L 948.340 532.500 948.394 506 L 948.448 479.500 946.758 463.500 L 945.068 447.500 943.020 435.500 L 940.972 423.500 938.058 411.500 L 935.143 399.500 930.021 382.542 L 924.898 365.584 918.334 349.044 L 911.769 332.504 906.757 322.502 L 901.745 312.500 893.733 298.500 L 885.721 284.500 879.008 274.500 L 872.296 264.500 869.898 260.990 L 867.500 257.479 862.528 250.990 L 857.556 244.500 853.125 239 L 848.695 233.500 838.337 221.980 L 827.978 210.460 816.239 199.391 L 804.500 188.322 794 179.357 L 783.500 170.392 774.069 163.043 L 764.637 155.695 750.569 146.477 L 736.500 137.260 724.972 130.731 L 713.444 124.202 699.972 117.719 L 686.500 111.236 677.500 107.565 L 668.500 103.895 665.500 102.523 L 662.500 101.152 652 97.527 L 641.500 93.901 634.500 91.881 L 627.500 89.861 621 88.012 L 614.500 86.163 609 85.104 L 603.500 84.045 596.500 82.478 L 589.500 80.911 581 79.435 L 572.500 77.960 559.500 76.402 L 546.500 74.845 533.500 74.172 L 520.500 73.500 494.500 74.098 M 479.500 76.491 L 478.500 76.902 466.500 77.977 L 454.500 79.052 445.500 80.491 L 436.500 81.930 429 83.443 L 421.500 84.955 416.500 86.008 L 411.500 87.061 410 87.309 L 408.500 87.558 407.492 88.188 L 406.485 88.818 402.492 89.614 L 398.500 90.410 398 90.541 L 397.500 90.673 396 91.259 L 394.500 91.845 389 93.451 L 383.500 95.058 378.500 96.630 L 373.500 98.203 370.500 99.506 L 367.500 100.810 359 103.814 L 350.500 106.817 340.798 111.409 L 331.096 116 330.461 116 L 329.825 116 315.163 123.858 L 300.500 131.717 297.059 133.608 L 293.618 135.500 292.559 136.297 L 291.500 137.094 277 146.343 L 262.500 155.591 257.643 159.319 L 252.786 163.047 245.143 169.223 L 237.500 175.399 225 186.547 L 212.500 197.696 207.500 202.721 L 202.500 207.746 197.438 213.123 L 192.375 218.500 185.432 226.500 L 178.488 234.500 172.887 241.500 L 167.287 248.500 161.804 256 L 156.321 263.500 151.410 271 L 146.500 278.500 145.911 279 L 145.322 279.500 139.411 289.832 L 133.500 300.164 126.364 314.332 L 119.229 328.500 116.746 334 L 114.263 339.500 112.252 344.500 L 110.241 349.500 107.635 356 L 105.029 362.500 101.071 374.500 L 97.113 386.500 94.435 396.500 L 91.757 406.500 90.329 413 L 88.900 419.500 87.408 428 L 85.915 436.500 85.082 442.500 L 84.249 448.500 83.154 458.500 L 82.059 468.500 81.030 480.059 L 80 491.617 80 506.773 L 80 521.928 80.972 531.714 L 81.943 541.500 82.988 551.500 L 84.033 561.500 84.988 568 L 85.943 574.500 87.511 583.500 L 89.079 592.500 89.494 595 L 89.909 597.500 90.885 601.500 L 91.862 605.500 93.462 612 L 95.063 618.500 95.906 622 L 96.750 625.500 102.398 642.689 L 108.046 659.879 112.092 669.689 L 116.139 679.500 118.319 684.489 L 120.500 689.479 126.084 700.489 L 131.669 711.500 136.997 721 L 142.325 730.500 147.163 737.769 L 152 745.039 152 745.595 L 152 746.152 164.908 763.326 L 177.815 780.500 189.293 793.500 L 200.770 806.500 211.635 817.024 L 222.500 827.549 230 834.069 L 237.500 840.590 240.104 842.545 L 242.708 844.500 252.756 852.151 L 262.804 859.802 271.152 865.279 L 279.500 870.755 286.500 875.041 L 293.500 879.328 303.500 885.001 L 313.500 890.675 320.500 894.288 L 327.500 897.902 335.500 901.600 L 343.500 905.299 344.500 905.557 L 345.500 905.814 355 909.805 L 364.500 913.795 378 918.275 L 391.500 922.755 396.500 924.272 L 401.500 925.788 414.500 928.835 L 427.500 931.881 436 933.416 L 444.500 934.952 455.500 936.437 L 466.500 937.921 476.192 938.961 L 485.883 940 512.078 940 L 538.273 940 547.387 938.932 L 556.500 937.864 568 936.403 L 579.500 934.942 587.500 933.433 L 595.500 931.923 600 930.992 L 604.500 930.060 613.500 928.014 L 622.500 925.968 628 924.358 L 633.500 922.747 646.500 918.467 L 659.500 914.186 673 908.715 L 686.500 903.244 700.500 896.425 L 714.500 889.606 729.500 880.647 L 744.500 871.688 752 866.689 L 759.500 861.689 771 853.130 L 782.500 844.571 792.500 835.987 L 802.500 827.403 805.831 824.451 L 809.161 821.500 820.467 810 L 831.772 798.500 840.273 788.859 L 848.774 779.218 857.693 767.359 L 866.612 755.500 871.556 748.538 L 876.500 741.577 877.500 739.826 L 878.500 738.076 885.173 727.288 L 891.846 716.500 899.554 701.502 L 907.262 686.503 913.523 671.002 L 919.784 655.500 922.311 648 L 924.839 640.500 928.839 627.500 L 932.839 614.500 933.951 609.500 L 935.063 604.500 937.016 595 L 938.969 585.500 939.942 580.500 L 940.915 575.500 941.492 570.500 L 942.068 565.500 943.096 558 L 944.124 550.500 945.389 528 L 946.654 505.500 945.330 479.500 L 944.006 453.500 942.997 450 L 941.988 446.500 941.036 439 L 940.084 431.500 937.563 419.500 L 935.042 407.500 933.619 402.500 L 932.195 397.500 928.635 386 L 925.076 374.500 921.577 364.749 L 918.079 354.998 913.969 344.749 L 909.859 334.500 902.052 319 L 894.246 303.500 884.791 287.925 L 875.337 272.350 862.311 254.925 L 849.285 237.500 836.788 224 L 824.291 210.500 812.814 199.500 L 801.338 188.500 796.419 184.321 L 791.500 180.142 786.500 176.080 L 781.500 172.019 773.500 165.793 L 765.500 159.567 764.500 158.735 L 763.500 157.903 752.288 150.542 L 741.076 143.180 732.788 138.187 L 724.500 133.194 719.750 130.898 L 715 128.601 715 127.801 L 715 127 714.057 127 L 713.113 127 700.807 121.094 L 688.500 115.189 682 112.516 L 675.500 109.844 668.500 106.701 L 661.500 103.558 661 103.029 L 660.500 102.500 658.500 102.366 L 656.500 102.232 646.500 98.728 L 636.500 95.224 630.756 93.592 L 625.013 91.960 619.756 90.561 L 614.500 89.161 608 87.622 L 601.500 86.082 594 84.602 L 586.500 83.121 583.500 82.499 L 580.500 81.877 575.500 80.958 L 570.500 80.039 566.500 79.610 L 562.500 79.182 552 78.002 L 541.500 76.823 511 76.451 L 480.500 76.080 479.500 76.491 M 767.500 227.078 L 756.500 227.837 735 228.911 L 713.500 229.985 675.500 230.964 L 637.500 231.943 626.500 232.480 L 615.500 233.016 596.500 233.599 L 577.500 234.182 536 235.012 L 494.500 235.843 422.845 235.503 L 351.191 235.163 344.777 242.332 L 338.363 249.500 331.017 259 L 323.671 268.500 317.960 275 L 312.250 281.500 297.019 300 L 281.788 318.500 271.666 331 L 261.544 343.500 255.507 350.500 L 249.470 357.500 244.033 364.500 L 238.595 371.500 230.475 381 L 222.355 390.500 220.677 392.973 L 219 395.445 219 396.223 L 219 397 221.980 397 L 224.960 397 228.730 395.528 L 232.500 394.056 236.500 393.115 L 240.500 392.174 246.500 390.486 L 252.500 388.799 258 387.355 L 263.500 385.911 266.500 385.013 L 269.500 384.115 281.500 381.011 L 293.500 377.907 300.500 376.424 L 307.500 374.941 314.500 373.511 L 321.500 372.081 334 369.523 L 346.500 366.965 355.500 365.407 L 364.500 363.849 373.500 362.500 L 382.500 361.150 392.500 359.513 L 402.500 357.876 408 357.003 L 413.500 356.131 427 354.036 L 440.500 351.941 447.500 350.876 L 454.500 349.812 464.500 348.407 L 474.500 347.001 485.500 345.520 L 496.500 344.039 503 343.010 L 509.500 341.981 519.500 340.534 L 529.500 339.087 535.963 338.089 L 542.425 337.092 542.703 337.369 L 542.980 337.647 528.717 356.573 L 514.453 375.500 507.222 385 L 499.991 394.500 499.203 395.500 L 498.414 396.500 492.260 404.500 L 486.106 412.500 484.221 415 L 482.337 417.500 457.419 450.416 L 432.500 483.333 410.500 512.471 L 388.500 541.608 385.779 545.054 L 383.059 548.500 367.779 568.835 L 352.500 589.170 350.500 591.985 L 348.500 594.800 341.403 604.150 L 334.307 613.500 322.762 629 L 311.217 644.500 299.858 659.557 L 288.500 674.613 280.313 685.557 L 272.125 696.500 268.220 701.500 L 264.314 706.500 254.157 720.260 L 244 734.021 244 734.951 L 244 735.882 244.884 736.428 L 245.767 736.974 257.668 735.501 L 269.569 734.028 281.034 733.056 L 292.500 732.085 306.500 730.528 L 320.500 728.972 331 727.983 L 341.500 726.995 349.500 725.963 L 357.500 724.931 365 723.955 L 372.500 722.979 382 721.970 L 391.500 720.961 403.500 719.533 L 415.500 718.105 424 717.064 L 432.500 716.023 445.500 714.437 L 458.500 712.851 470 711.471 L 481.500 710.092 492.500 709.040 L 503.500 707.989 505.500 707.489 L 507.500 706.988 521.500 705.490 L 535.500 703.992 547 702.550 L 558.500 701.108 566.500 700.001 L 574.500 698.895 586 697.522 L 597.500 696.150 605.719 694.981 L 613.937 693.812 614.843 694.156 L 615.749 694.500 608.624 704.022 L 601.500 713.545 588.803 730.522 L 576.106 747.500 563.972 763.500 L 551.838 779.500 533.159 804.500 L 514.479 829.500 511.905 833.500 L 509.332 837.500 505.666 843.009 L 502 848.517 502 849.759 L 502 851 503.987 851 L 505.973 851 512.737 845.305 L 519.500 839.609 533 827.596 L 546.500 815.583 554.024 808.542 L 561.547 801.500 571.064 792.500 L 580.581 783.500 586.041 778.556 L 591.500 773.612 598 767.622 L 604.500 761.632 616.527 750.066 L 628.553 738.500 638.527 728.962 L 648.500 719.424 665.527 702.962 L 682.553 686.500 702.522 667.500 L 722.490 648.500 733.995 637.493 L 745.500 626.487 762.989 609.993 L 780.477 593.500 802.989 571.842 L 825.500 550.184 830.463 545.091 L 835.427 539.998 833.963 538.574 L 832.500 537.150 821.500 540.139 L 810.500 543.128 806.500 543.990 L 802.500 544.851 790 548.333 L 777.500 551.815 773 552.842 L 768.500 553.869 752.500 557.962 L 736.500 562.054 730 563.577 L 723.500 565.100 717.500 566.494 L 711.500 567.887 708.500 568.525 L 705.500 569.162 704 569.701 L 702.500 570.240 700 570.532 L 697.500 570.823 693.500 571.821 L 689.500 572.819 682.500 574.441 L 675.500 576.063 668.500 577.543 L 661.500 579.023 654 580.500 L 646.500 581.977 639 583.572 L 631.500 585.166 625.500 586.470 L 619.500 587.774 606 590.507 L 592.500 593.239 585.500 594.562 L 578.500 595.884 570.500 597.517 L 562.500 599.149 558 600.045 L 553.500 600.940 545.500 602.504 L 537.500 604.067 528.500 605.431 L 519.500 606.795 510.706 608.439 L 501.912 610.083 499.317 611.069 L 496.723 612.056 496.255 611.588 L 495.786 611.120 498.898 607.310 L 502.009 603.500 509.255 594.375 L 516.500 585.250 520.500 580.030 L 524.500 574.811 530.590 567.155 L 536.681 559.500 553.955 537.186 L 571.230 514.872 575.651 509.186 L 580.072 503.500 582.526 500 L 584.979 496.500 590.239 489.770 L 595.500 483.040 605.658 469.770 L 615.816 456.500 628.158 440.320 L 640.500 424.141 662.724 394.820 L 684.948 365.500 690.903 357.500 L 696.858 349.500 698.767 347 L 700.675 344.500 719.374 319.500 L 738.072 294.500 742.786 288.338 L 747.500 282.177 752.325 275.838 L 757.150 269.500 771.575 250.248 L 786 230.995 786 228.498 L 786 226 782.250 226.160 L 778.500 226.319 767.500 227.078 M 403.500 432.002 L 390.500 433.748 375 436.381 L 359.500 439.014 353 440.154 L 346.500 441.294 333 444.571 L 319.500 447.848 312 449.853 L 304.500 451.859 294.500 454.458 L 284.500 457.057 277.500 459.081 L 270.500 461.105 268.764 462.053 L 267.027 463 265.998 463 L 264.969 463 250.235 468.885 L 235.500 474.770 224.500 480.033 L 213.500 485.295 203.964 490.620 L 194.428 495.944 191.605 498.891 L 188.782 501.837 189.450 502.919 L 190.118 504 192.361 504 L 194.605 504 213.552 499.467 L 232.500 494.934 239.500 493.378 L 246.500 491.821 253 490.372 L 259.500 488.923 264 487.939 L 268.500 486.955 276 485.453 L 283.500 483.950 291 482.519 L 298.500 481.089 301.500 480.484 L 304.500 479.879 311.500 478.504 L 318.500 477.129 328 475.508 L 337.500 473.887 343 472.938 L 348.500 471.989 364 469.437 L 379.500 466.884 389 465.446 L 398.500 464.008 405.835 463.018 L 413.170 462.027 415.764 460.764 L 418.358 459.500 419.929 456.874 L 421.500 454.247 427.731 444.374 L 433.963 434.500 433.981 432.250 L 434 430 425.250 430.128 L 416.500 430.256 403.500 432.002 M 309.500 535.482 L 299.500 536.836 290.500 538.447 L 281.500 540.059 274.955 540.946 L 268.410 541.834 260.455 543.418 L 252.500 545.002 248 546.061 L 243.500 547.119 237.500 548.648 L 231.500 550.177 226.500 551.488 L 221.500 552.799 215.500 554.504 L 209.500 556.209 197.793 560.097 L 186.086 563.985 180.293 566.586 L 174.500 569.186 170.500 571.002 L 166.500 572.817 155 578.001 L 143.500 583.185 142.133 584.495 L 140.767 585.805 142.959 586.978 L 145.151 588.151 163.326 585.627 L 181.500 583.102 190.500 581.977 L 199.500 580.852 207 579.941 L 214.500 579.030 225 577.466 L 235.500 575.902 245 574.963 L 254.500 574.023 260.500 573.036 L 266.500 572.049 277.500 570.478 L 288.500 568.908 295.500 567.899 L 302.500 566.891 311 565.508 L 319.500 564.125 324 563.512 L 328.500 562.899 330.740 561.433 L 332.981 559.966 340.049 549.357 L 347.117 538.748 346.644 537.515 L 346.171 536.283 342.336 535.675 L 338.500 535.068 329 534.598 L 319.500 534.128 309.500 535.482" stroke="none" fill="#544abd" fill-rule="evenodd"/></svg>